<?xml version="1.0" encoding="UTF-8" standalone="no" ?>
<!DOCTYPE svg PUBLIC "-//W3C//DTD SVG 1.1//EN" "http://www.w3.org/Graphics/SVG/1.1/DTD/svg11.dtd">
<svg width="352mm" xmlns="http://www.w3.org/2000/svg" height="187mm" version="1.1" viewBox="0 0 1331 708" xmlns:xlink="http://www.w3.org/1999/xlink">
   <polyline fill="none" points="266,191 264,281" stroke="#00aaaa" stroke-width="1"/>
   <polyline fill="none" points="260,205 271,205" stroke="#00aaaa" stroke-width="1"/>
   <polyline fill="none" points="255,292 264,266 273,293 255,292" stroke="#00aaaa" stroke-width="1"/>
   <polyline fill="none" points="270,266 259,266" stroke="#00aaaa" stroke-width="1"/>
   <text x="265" y="238" fill="#000000" font-size="10" font-family="Arial" text-anchor="middle">is composed</text>
   <text x="277" y="219" fill="#000000" font-size="10" font-family="Arial" text-anchor="middle">1,1</text>
   <text x="254" y="258" fill="#000000" font-size="10" font-family="Arial" text-anchor="middle">1,n</text>
   <polyline fill="none" points="333,308 444,308" stroke="#00aaaa" stroke-width="1"/>
   <polyline fill="none" points="347,313 347,302" stroke="#00aaaa" stroke-width="1"/>
   <polyline fill="none" points="457,317 430,308 457,298 457,317" stroke="#00aaaa" stroke-width="1"/>
   <polyline fill="none" points="430,302 430,313" stroke="#00aaaa" stroke-width="1"/>
   <text x="395" y="298" fill="#000000" font-size="10" font-family="Arial" text-anchor="middle">is formed</text>
   <text x="362" y="303" fill="#000000" font-size="10" font-family="Arial" text-anchor="middle">1,1</text>
   <text x="416" y="318" fill="#000000" font-size="10" font-family="Arial" text-anchor="middle">1,n</text>
   <polyline fill="none" points="567,304 605,304 605,248 521,248 521,278 521,280" stroke="#00aaaa" stroke-width="1"/>
   <ellipse cx="578" cy="303" rx="3" ry="3" fill="#ffffff" stroke="#00aaaa" stroke-width="1"/>
   <polyline fill="none" points="512,292 521,265 530,292 512,292" stroke="#00aaaa" stroke-width="1"/>
   <ellipse cx="521" cy="261" rx="3" ry="3" fill="#ffffff" stroke="#00aaaa" stroke-width="1"/>
   <text x="563" y="260" fill="#000000" font-size="10" font-family="Arial" text-anchor="middle">contains</text>
   <text x="619" y="294" fill="#000000" font-size="10" font-family="Arial" text-anchor="middle">container</text>
   <text x="619" y="304" fill="#000000" font-size="10" font-family="Arial" text-anchor="middle">0,1</text>
   <text x="513" y="242" fill="#000000" font-size="10" font-family="Arial" text-anchor="middle">containee</text>
   <text x="513" y="252" fill="#000000" font-size="10" font-family="Arial" text-anchor="middle">0,n</text>
   <polyline fill="none" points="499,415 502,340" stroke="#8080ff" stroke-width="1"/>
   <polygon fill="#8080ff" points="502,341 504,354 498,354" stroke="#8080ff" stroke-width="1" stroke-linejoin="miter"/>
   <text x="500" y="377" fill="#000000" font-size="10" font-family="Arial" text-anchor="middle">itemIsA</text>
   <polyline fill="none" points="437,492 499,415" stroke="#8080ff" stroke-width="1"/>
   <polyline fill="none" points="577,493 499,415" stroke="#8080ff" stroke-width="1"/>
   <polyline fill="none" points="610,518 820,508" stroke="#00aaaa" stroke-width="1"/>
   <polyline fill="none" points="649,507 676,515 650,526 649,507" stroke="#00aaaa" stroke-width="1"/>
   <polyline fill="none" points="677,520 676,510" stroke="#00aaaa" stroke-width="1"/>
   <polyline fill="none" points="833,517 806,509 832,498 833,517" stroke="#00aaaa" stroke-width="1"/>
   <polyline fill="none" points="805,503 806,514" stroke="#00aaaa" stroke-width="1"/>
   <text x="740" y="524" fill="#000000" font-size="10" font-family="Arial" text-anchor="middle">expects : 1</text>
   <text x="691" y="509" fill="#000000" font-size="10" font-family="Arial" text-anchor="middle">1,n</text>
   <text x="791" y="520" fill="#000000" font-size="10" font-family="Arial" text-anchor="middle">1,n</text>
   <polyline fill="none" points="891,592 887,557" stroke="#8080ff" stroke-width="1"/>
   <polygon fill="#8080ff" points="887,558 892,571 886,572" stroke="#8080ff" stroke-width="1" stroke-linejoin="miter"/>
   <text x="888" y="575" fill="#000000" font-size="10" font-family="Arial" text-anchor="middle">isOneOf</text>
   <polyline fill="none" points="814,651 891,592" stroke="#8080ff" stroke-width="1"/>
   <polyline fill="none" points="966,650 891,592" stroke="#8080ff" stroke-width="1"/>
   <polyline fill="none" points="1057,671 1212,671" stroke="#00aaaa" stroke-width="1"/>
   <polyline fill="none" points="1071,676 1071,665" stroke="#00aaaa" stroke-width="1"/>
   <polyline fill="none" points="1225,680 1198,671 1225,661 1225,680" stroke="#00aaaa" stroke-width="1"/>
   <polyline fill="none" points="1198,665 1198,676" stroke="#00aaaa" stroke-width="1"/>
   <text x="1134" y="682" fill="#000000" font-size="10" font-family="Arial" text-anchor="middle">contains_enums</text>
   <text x="1086" y="666" fill="#000000" font-size="10" font-family="Arial" text-anchor="middle">1,1</text>
   <text x="1183" y="681" fill="#000000" font-size="10" font-family="Arial" text-anchor="middle">1,n</text>
   <polyline fill="none" points="62,65 62,139 193,139" stroke="#00aaaa" stroke-width="1"/>
   <ellipse cx="61" cy="75" rx="3" ry="3" fill="#ffffff" stroke="#00aaaa" stroke-width="1"/>
   <polyline fill="none" points="205,148 178,139 205,129 205,148" stroke="#00aaaa" stroke-width="1"/>
   <ellipse cx="174" cy="138" rx="3" ry="3" fill="#ffffff" stroke="#00aaaa" stroke-width="1"/>
   <text x="62" y="141" fill="#000000" font-size="10" font-family="Arial" text-anchor="middle">Rel_Prj_Intrv</text>
   <text x="74" y="91" fill="#000000" font-size="10" font-family="Arial" text-anchor="middle">0,1</text>
   <text x="164" y="149" fill="#000000" font-size="10" font-family="Arial" text-anchor="middle">0,n</text>
   <polyline fill="none" points="217,191 217,224 164,224 164,177 193,177" stroke="#00aaaa" stroke-width="1"/>
   <polyline fill="none" points="211,205 222,205" stroke="#00aaaa" stroke-width="1"/>
   <polyline fill="none" points="205,186 178,177 205,168 205,186" stroke="#00aaaa" stroke-width="1"/>
   <ellipse cx="174" cy="177" rx="3" ry="3" fill="#ffffff" stroke="#00aaaa" stroke-width="1"/>
   <text x="153" y="238" fill="#000000" font-size="10" font-family="Arial" text-anchor="middle">src_clone_rel</text>
   <text x="235" y="205" fill="#000000" font-size="10" font-family="Arial" text-anchor="middle">source</text>
   <text x="235" y="215" fill="#000000" font-size="10" font-family="Arial" text-anchor="middle">1,1</text>
   <text x="158" y="175" fill="#000000" font-size="10" font-family="Arial" text-anchor="middle">clone</text>
   <text x="158" y="185" fill="#000000" font-size="10" font-family="Arial" text-anchor="middle">0,n</text>
   <defs>
      <linearGradient id="Gradient1" x1="0%" x2="100%" y1="0%" y2="100%" gradientUnits="objectBoundingBox">
         <stop offset="5%" stop-color="#ffffff"/>
         <stop offset="95%" stop-color="#b0ffff"/>
      </linearGradient>
   </defs>
   <rect x="192" y="119" fill="url(#Gradient1)" width="143" height="73" stroke="#00aaaa" stroke-width="1"/>
   <text x="262" y="129" fill="#000000" font-size="10" font-family="Arial" text-anchor="middle">Interview</text>
   <line x1="192" x2="335" y1="136" y2="136" stroke="#00aaaa" stroke-width="1"/>
   <text x="196" y="146" fill="#000000" font-size="10" font-family="Arial" text-decoration="underline">idInterview</text>
   <text x="196" y="159" fill="#000000" font-size="10" font-family="Arial">name</text>
   <text x="196" y="172" fill="#000000" font-size="10" font-family="Arial">description</text>
   <text x="255" y="146" fill="#000000" font-size="10" font-family="Arial" text-decoration="underline">Serial</text>
   <text x="255" y="159" fill="#000000" font-size="10" font-family="Arial">Variable characters (128)</text>
   <text x="255" y="172" fill="#000000" font-size="10" font-family="Arial">Variable characters (128)</text>
   <defs>
      <linearGradient id="Gradient2" x1="0%" x2="100%" y1="0%" y2="100%" gradientUnits="objectBoundingBox">
         <stop offset="5%" stop-color="#ffffff"/>
         <stop offset="95%" stop-color="#b0ffff"/>
      </linearGradient>
   </defs>
   <rect x="213" y="279" fill="url(#Gradient2)" width="121" height="63" stroke="#00aaaa" stroke-width="1"/>
   <text x="272" y="290" fill="#000000" font-size="10" font-family="Arial" text-anchor="middle">Section</text>
   <line x1="213" x2="334" y1="297" y2="297" stroke="#00aaaa" stroke-width="1"/>
   <text x="217" y="307" fill="#000000" font-size="10" font-family="Arial" text-decoration="underline">idSection</text>
   <text x="217" y="320" fill="#000000" font-size="10" font-family="Arial">name</text>
   <text x="217" y="333" fill="#000000" font-size="10" font-family="Arial">description</text>
   <text x="217" y="346" fill="#000000" font-size="10" font-family="Arial">section_order</text>
   <text x="217" y="349" fill="#000000" font-size="10" font-family="Arial">...</text>
   <text x="288" y="307" fill="#000000" font-size="10" font-family="Arial" text-decoration="underline">Serial</text>
   <text x="288" y="320" fill="#000000" font-size="10" font-family="Arial">Variable characters (128)</text>
   <text x="288" y="333" fill="#000000" font-size="10" font-family="Arial">Variable characters (128)</text>
   <text x="288" y="346" fill="#000000" font-size="10" font-family="Arial">Integer</text>
   <defs>
      <linearGradient id="Gradient3" x1="0%" x2="100%" y1="0%" y2="100%" gradientUnits="objectBoundingBox">
         <stop offset="5%" stop-color="#ffffff"/>
         <stop offset="95%" stop-color="#b0ffff"/>
      </linearGradient>
   </defs>
   <rect x="444" y="278" fill="url(#Gradient3)" width="124" height="63" stroke="#00aaaa" stroke-width="1"/>
   <text x="505" y="289" fill="#000000" font-size="10" font-family="Arial" text-anchor="middle">Item</text>
   <line x1="444" x2="568" y1="296" y2="296" stroke="#00aaaa" stroke-width="1"/>
   <text x="448" y="306" fill="#000000" font-size="10" font-family="Arial" text-decoration="underline">idItem</text>
   <text x="448" y="319" fill="#000000" font-size="10" font-family="Arial">content</text>
   <text x="448" y="332" fill="#000000" font-size="10" font-family="Arial">item_order</text>
   <text x="448" y="345" fill="#000000" font-size="10" font-family="Arial">repeatable</text>
   <text x="448" y="348" fill="#000000" font-size="10" font-family="Arial">...</text>
   <text x="507" y="306" fill="#000000" font-size="10" font-family="Arial" text-decoration="underline">Serial</text>
   <text x="507" y="319" fill="#000000" font-size="10" font-family="Arial">Variable characters (10240)</text>
   <text x="507" y="332" fill="#000000" font-size="10" font-family="Arial">Integer</text>
   <text x="507" y="345" fill="#000000" font-size="10" font-family="Arial">Integer</text>
   <defs>
      <linearGradient id="Gradient4" x1="0%" x2="100%" y1="0%" y2="100%" gradientUnits="objectBoundingBox">
         <stop offset="5%" stop-color="#ffffff"/>
         <stop offset="95%" stop-color="#b0ffff"/>
      </linearGradient>
   </defs>
   <rect x="558" y="492" fill="url(#Gradient4)" width="105" height="53" stroke="#00aaaa" stroke-width="1"/>
   <text x="609" y="502" fill="#000000" font-size="10" font-family="Arial" text-anchor="middle">Question : 1</text>
   <line x1="558" x2="663" y1="509" y2="509" stroke="#00aaaa" stroke-width="1"/>
   <text x="562" y="519" fill="#000000" font-size="10" font-family="Arial" text-decoration="underline">idQuestion</text>
   <text x="562" y="532" fill="#000000" font-size="10" font-family="Arial">mandatory</text>
   <text x="621" y="519" fill="#000000" font-size="10" font-family="Arial" text-decoration="underline">Serial</text>
   <text x="621" y="532" fill="#000000" font-size="10" font-family="Arial">Boolean</text>
   <defs>
      <linearGradient id="Gradient5" x1="0%" x2="100%" y1="0%" y2="100%" gradientUnits="objectBoundingBox">
         <stop offset="5%" stop-color="#ffffff"/>
         <stop offset="95%" stop-color="#b0ffff"/>
      </linearGradient>
   </defs>
   <rect x="379" y="491" fill="url(#Gradient5)" width="125" height="54" stroke="#00aaaa" stroke-width="1"/>
   <text x="441" y="502" fill="#000000" font-size="10" font-family="Arial" text-anchor="middle">Text</text>
   <line x1="379" x2="504" y1="509" y2="509" stroke="#00aaaa" stroke-width="1"/>
   <text x="383" y="519" fill="#000000" font-size="10" font-family="Arial" text-decoration="underline">idText</text>
   <text x="421" y="519" fill="#000000" font-size="10" font-family="Arial" text-decoration="underline">Serial</text>
   <text x="457" y="519" fill="#000000" font-size="10" font-family="Arial" text-decoration="underline">&lt;M&gt;</text>
   <defs>
      <linearGradient id="Gradient6" x1="0%" x2="100%" y1="0%" y2="100%" gradientUnits="objectBoundingBox">
         <stop offset="5%" stop-color="#ffffff"/>
         <stop offset="95%" stop-color="#b0ffff"/>
      </linearGradient>
   </defs>
   <defs>
      <linearGradient id="Gradient7" x1="0%" x2="100%" y1="0%" y2="100%" gradientUnits="objectBoundingBox">
         <stop offset="5%" stop-color="#ffffff"/>
         <stop offset="95%" stop-color="#b0ffff"/>
      </linearGradient>
   </defs>
   <path d="M509,422 A10,13 0 0,0 488,422 L498,421 Z" fill="url(#Gradient7)" stroke="#8080ff" stroke-width="1"/>
   <line x1="502" x2="495" y1="419" y2="411" stroke="#8080ff" stroke-width="1"/>
   <line x1="495" x2="502" y1="419" y2="411" stroke="#8080ff" stroke-width="1"/>
   <line x1="509" x2="488" y1="419" y2="419" stroke="#8080ff" stroke-width="1"/>
   <defs>
      <linearGradient id="Gradient8" x1="0%" x2="100%" y1="0%" y2="100%" gradientUnits="objectBoundingBox">
         <stop offset="5%" stop-color="#ffffff"/>
         <stop offset="95%" stop-color="#b0ffff"/>
      </linearGradient>
   </defs>
   <rect x="819" y="483" fill="url(#Gradient8)" width="147" height="75" stroke="#00aaaa" stroke-width="1"/>
   <text x="891" y="493" fill="#000000" font-size="10" font-family="Arial" text-anchor="middle">Answer_Item : 1</text>
   <line x1="819" x2="966" y1="500" y2="500" stroke="#00aaaa" stroke-width="1"/>
   <text x="823" y="510" fill="#000000" font-size="10" font-family="Arial" text-decoration="underline">idAnsItem</text>
   <text x="823" y="523" fill="#000000" font-size="10" font-family="Arial">answer_order</text>
   <text x="823" y="536" fill="#000000" font-size="10" font-family="Arial">name</text>
   <text x="823" y="549" fill="#000000" font-size="10" font-family="Arial">description</text>
   <text x="893" y="510" fill="#000000" font-size="10" font-family="Arial" text-decoration="underline">Serial</text>
   <text x="893" y="523" fill="#000000" font-size="10" font-family="Arial">Integer</text>
   <text x="893" y="536" fill="#000000" font-size="10" font-family="Arial">Variable characters (128)</text>
   <text x="893" y="549" fill="#000000" font-size="10" font-family="Arial">Variable characters (128)</text>
   <defs>
      <linearGradient id="Gradient9" x1="0%" x2="100%" y1="0%" y2="100%" gradientUnits="objectBoundingBox">
         <stop offset="5%" stop-color="#ffffff"/>
         <stop offset="95%" stop-color="#b0ffff"/>
      </linearGradient>
   </defs>
   <rect x="763" y="650" fill="url(#Gradient9)" width="106" height="44" stroke="#00aaaa" stroke-width="1"/>
   <text x="815" y="661" fill="#000000" font-size="10" font-family="Arial" text-anchor="middle">AnswerType</text>
   <line x1="763" x2="869" y1="668" y2="668" stroke="#00aaaa" stroke-width="1"/>
   <text x="767" y="678" fill="#000000" font-size="10" font-family="Arial" text-decoration="underline">idAnsType</text>
   <text x="825" y="678" fill="#000000" font-size="10" font-family="Arial" text-decoration="underline">Serial</text>
   <text x="861" y="678" fill="#000000" font-size="10" font-family="Arial" text-decoration="underline">&lt;M&gt;</text>
   <defs>
      <linearGradient id="Gradient10" x1="0%" x2="100%" y1="0%" y2="100%" gradientUnits="objectBoundingBox">
         <stop offset="5%" stop-color="#ffffff"/>
         <stop offset="95%" stop-color="#b0ffff"/>
      </linearGradient>
   </defs>
   <rect x="949" y="649" fill="url(#Gradient10)" width="109" height="46" stroke="#00aaaa" stroke-width="1"/>
   <text x="1002" y="660" fill="#000000" font-size="10" font-family="Arial" text-anchor="middle">EnumType</text>
   <line x1="949" x2="1058" y1="667" y2="667" stroke="#00aaaa" stroke-width="1"/>
   <text x="953" y="677" fill="#000000" font-size="10" font-family="Arial" text-decoration="underline">idEnumType</text>
   <text x="1022" y="677" fill="#000000" font-size="10" font-family="Arial" text-decoration="underline">Serial</text>
   <defs>
      <linearGradient id="Gradient11" x1="0%" x2="100%" y1="0%" y2="100%" gradientUnits="objectBoundingBox">
         <stop offset="5%" stop-color="#ffffff"/>
         <stop offset="95%" stop-color="#b0ffff"/>
      </linearGradient>
   </defs>
   <rect x="1211" y="630" fill="url(#Gradient11)" width="118" height="76" stroke="#00aaaa" stroke-width="1"/>
   <text x="1270" y="641" fill="#000000" font-size="10" font-family="Arial" text-anchor="middle">EnumItem</text>
   <line x1="1211" x2="1329" y1="648" y2="648" stroke="#00aaaa" stroke-width="1"/>
   <text x="1215" y="658" fill="#000000" font-size="10" font-family="Arial" text-decoration="underline">idEnumItem</text>
   <text x="1215" y="671" fill="#000000" font-size="10" font-family="Arial">name</text>
   <text x="1215" y="684" fill="#000000" font-size="10" font-family="Arial">description</text>
   <text x="1215" y="697" fill="#000000" font-size="10" font-family="Arial">value</text>
   <text x="1281" y="658" fill="#000000" font-size="10" font-family="Arial" text-decoration="underline">Serial</text>
   <text x="1281" y="671" fill="#000000" font-size="10" font-family="Arial">Variable characters (128)</text>
   <text x="1281" y="684" fill="#000000" font-size="10" font-family="Arial">Variable characters (128)</text>
   <text x="1281" y="697" fill="#000000" font-size="10" font-family="Arial">Variable characters (256)</text>
   <defs>
      <linearGradient id="Gradient12" x1="0%" x2="100%" y1="0%" y2="100%" gradientUnits="objectBoundingBox">
         <stop offset="5%" stop-color="#ffffff"/>
         <stop offset="95%" stop-color="#b0ffff"/>
      </linearGradient>
   </defs>
   <defs>
      <linearGradient id="Gradient13" x1="0%" x2="100%" y1="0%" y2="100%" gradientUnits="objectBoundingBox">
         <stop offset="5%" stop-color="#ffffff"/>
         <stop offset="95%" stop-color="#b0ffff"/>
      </linearGradient>
   </defs>
   <path d="M902,599 A11,13 0 0,0 880,599 L891,598 Z" fill="url(#Gradient13)" stroke="#8080ff" stroke-width="1"/>
   <line x1="895" x2="888" y1="596" y2="588" stroke="#8080ff" stroke-width="1"/>
   <line x1="888" x2="895" y1="596" y2="588" stroke="#8080ff" stroke-width="1"/>
   <line x1="902" x2="881" y1="596" y2="596" stroke="#8080ff" stroke-width="1"/>
   <defs>
      <linearGradient id="Gradient14" x1="0%" x2="100%" y1="0%" y2="100%" gradientUnits="objectBoundingBox">
         <stop offset="5%" stop-color="#ffffff"/>
         <stop offset="95%" stop-color="#b0ffff"/>
      </linearGradient>
   </defs>
   <rect x="2" y="2" fill="url(#Gradient14)" width="125" height="63" stroke="#00aaaa" stroke-width="1"/>
   <text x="64" y="13" fill="#000000" font-size="10" font-family="Arial" text-anchor="middle">Project</text>
   <line x1="2" x2="127" y1="20" y2="20" stroke="#00aaaa" stroke-width="1"/>
   <text x="6" y="30" fill="#000000" font-size="10" font-family="Arial">idPrj</text>
   <text x="6" y="43" fill="#000000" font-size="10" font-family="Arial">name</text>
   <text x="6" y="56" fill="#000000" font-size="10" font-family="Arial">descrp</text>
   <text x="44" y="30" fill="#000000" font-size="10" font-family="Arial">Serial</text>
   <text x="44" y="43" fill="#000000" font-size="10" font-family="Arial">Variable characters (128)</text>
   <text x="44" y="56" fill="#000000" font-size="10" font-family="Arial">Variable characters (128)</text>
</svg>
