<?xml version="1.0" encoding="UTF-8" standalone="no" ?>
<!DOCTYPE svg PUBLIC "-//W3C//DTD SVG 1.1//EN" "http://www.w3.org/Graphics/SVG/1.1/DTD/svg11.dtd">
<svg width="89mm" xmlns="http://www.w3.org/2000/svg" height="95mm" version="1.1" viewBox="0 0 340 360" xmlns:xlink="http://www.w3.org/1999/xlink">
   <polyline fill="none" points="35,167 35,282" stroke="#00aaaa" stroke-width="1"/>
   <polyline fill="none" points="44,154 35,181 26,154 44,154" stroke="#00aaaa" stroke-width="1"/>
   <polyline fill="none" points="30,181 41,181" stroke="#00aaaa" stroke-width="1"/>
   <polyline fill="none" points="26,293 35,267 44,293 26,293" stroke="#00aaaa" stroke-width="1"/>
   <ellipse cx="35" cy="263" rx="3" ry="3" fill="#ffffff" stroke="#00aaaa" stroke-width="1"/>
   <text x="35" y="226" fill="#000000" font-size="10" font-family="Arial" text-anchor="middle">belongs to</text>
   <text x="47" y="195" fill="#000000" font-size="10" font-family="Arial" text-anchor="middle">1,n</text>
   <text x="24" y="258" fill="#000000" font-size="10" font-family="Arial" text-anchor="middle">0,n</text>
   <polyline fill="none" points="100,280 100,200 218,200" stroke="#00aaaa" stroke-width="1"/>
   <polyline fill="none" points="91,293 100,267 109,293 91,293" stroke="#00aaaa" stroke-width="1"/>
   <ellipse cx="100" cy="263" rx="3" ry="3" fill="#ffffff" stroke="#00aaaa" stroke-width="1"/>
   <polyline fill="none" points="231,209 205,200 231,191 231,209" stroke="#00aaaa" stroke-width="1"/>
   <polyline fill="none" points="205,194 205,205" stroke="#00aaaa" stroke-width="1"/>
   <text x="100" y="192" fill="#000000" font-size="10" font-family="Arial" text-anchor="middle">has</text>
   <text x="88" y="259" fill="#000000" font-size="10" font-family="Arial" text-anchor="middle">0,n</text>
   <text x="190" y="211" fill="#000000" font-size="10" font-family="Arial" text-anchor="middle">1,n</text>
   <polyline fill="none" points="59,136 58,42 143,42" stroke="#00aaaa" stroke-width="1"/>
   <polyline fill="none" points="50,118 59,91 69,118 50,118" stroke="#00aaaa" stroke-width="1"/>
   <ellipse cx="58" cy="87" rx="3" ry="3" fill="#ffffff" stroke="#00aaaa" stroke-width="1"/>
   <polyline fill="none" points="129,37 129,48" stroke="#00aaaa" stroke-width="1"/>
   <text x="58" y="45" fill="#000000" font-size="10" font-family="Arial" text-anchor="middle">hasOne</text>
   <text x="47" y="84" fill="#000000" font-size="10" font-family="Arial" text-anchor="middle">0,n</text>
   <text x="114" y="53" fill="#000000" font-size="10" font-family="Arial" text-anchor="middle">1,1</text>
   <defs>
      <linearGradient id="Gradient1" x1="0%" x2="100%" y1="0%" y2="100%" gradientUnits="objectBoundingBox">
         <stop offset="5%" stop-color="#ffffff"/>
         <stop offset="95%" stop-color="#b0ffff"/>
      </linearGradient>
   </defs>
   <rect x="2" y="280" fill="url(#Gradient1)" width="124" height="78" stroke="#00aaaa" stroke-width="1"/>
   <text x="63" y="290" fill="#000000" font-size="10" font-family="Arial" text-anchor="middle">AppUser</text>
   <line x1="2" x2="126" y1="297" y2="297" stroke="#00aaaa" stroke-width="1"/>
   <text x="6" y="307" fill="#000000" font-size="10" font-family="Arial" text-decoration="underline">idUser</text>
   <text x="6" y="320" fill="#000000" font-size="10" font-family="Arial">nickname</text>
   <text x="6" y="333" fill="#000000" font-size="10" font-family="Arial">passwd</text>
   <text x="6" y="346" fill="#000000" font-size="10" font-family="Arial">name</text>
   <text x="6" y="359" fill="#000000" font-size="10" font-family="Arial">midname</text>
   <text x="6" y="365" fill="#000000" font-size="10" font-family="Arial">...</text>
   <text x="59" y="307" fill="#000000" font-size="10" font-family="Arial" text-decoration="underline">Serial</text>
   <text x="59" y="320" fill="#000000" font-size="10" font-family="Arial">Variable characters (32)</text>
   <text x="59" y="333" fill="#000000" font-size="10" font-family="Arial">Variable characters (32)</text>
   <text x="59" y="346" fill="#000000" font-size="10" font-family="Arial">Variable characters (128)</text>
   <text x="59" y="359" fill="#000000" font-size="10" font-family="Arial">Variable characters (128)</text>
   <defs>
      <linearGradient id="Gradient2" x1="0%" x2="100%" y1="0%" y2="100%" gradientUnits="objectBoundingBox">
         <stop offset="5%" stop-color="#ffffff"/>
         <stop offset="95%" stop-color="#b0ffff"/>
      </linearGradient>
   </defs>
   <rect x="218" y="153" fill="url(#Gradient2)" width="120" height="63" stroke="#00aaaa" stroke-width="1"/>
   <text x="277" y="164" fill="#000000" font-size="10" font-family="Arial" text-anchor="middle">AppRole</text>
   <line x1="218" x2="338" y1="171" y2="171" stroke="#00aaaa" stroke-width="1"/>
   <text x="222" y="181" fill="#000000" font-size="10" font-family="Arial" text-decoration="underline">idrole</text>
   <text x="222" y="194" fill="#000000" font-size="10" font-family="Arial">name</text>
   <text x="222" y="207" fill="#000000" font-size="10" font-family="Arial">description</text>
   <text x="281" y="181" fill="#000000" font-size="10" font-family="Arial" text-decoration="underline">Serial</text>
   <text x="281" y="194" fill="#000000" font-size="10" font-family="Arial">Variable characters (128)</text>
   <text x="281" y="207" fill="#000000" font-size="10" font-family="Arial">Variable characters (128)</text>
   <defs>
      <linearGradient id="Gradient3" x1="0%" x2="100%" y1="0%" y2="100%" gradientUnits="objectBoundingBox">
         <stop offset="5%" stop-color="#ffffff"/>
         <stop offset="95%" stop-color="#b0ffff"/>
      </linearGradient>
   </defs>
   <rect x="6" y="105" fill="url(#Gradient3)" width="107" height="62" stroke="#00aaaa" stroke-width="1"/>
   <text x="59" y="115" fill="#000000" font-size="10" font-family="Arial" text-anchor="middle">AppGroup : 1</text>
   <line x1="6" x2="113" y1="122" y2="122" stroke="#00aaaa" stroke-width="1"/>
   <text x="10" y="132" fill="#000000" font-size="10" font-family="Arial">idGroup</text>
   <text x="10" y="145" fill="#000000" font-size="10" font-family="Arial">name</text>
   <text x="10" y="158" fill="#000000" font-size="10" font-family="Arial">codGroup</text>
   <text x="64" y="132" fill="#000000" font-size="10" font-family="Arial">Serial</text>
   <text x="64" y="145" fill="#000000" font-size="10" font-family="Arial">Variable characters (128)</text>
   <text x="64" y="158" fill="#000000" font-size="10" font-family="Arial">Variable characters (128)</text>
   <defs>
      <linearGradient id="Gradient4" x1="0%" x2="100%" y1="0%" y2="100%" gradientUnits="objectBoundingBox">
         <stop offset="5%" stop-color="#ffffff"/>
         <stop offset="95%" stop-color="#b0ffff"/>
      </linearGradient>
   </defs>
   <rect x="142" y="2" fill="url(#Gradient4)" width="147" height="63" stroke="#00aaaa" stroke-width="1"/>
   <text x="214" y="13" fill="#000000" font-size="10" font-family="Arial" text-anchor="middle">GroupType</text>
   <line x1="142" x2="289" y1="20" y2="20" stroke="#00aaaa" stroke-width="1"/>
   <text x="146" y="30" fill="#000000" font-size="10" font-family="Arial" text-decoration="underline">idGroupType</text>
   <text x="146" y="43" fill="#000000" font-size="10" font-family="Arial">name</text>
   <text x="146" y="56" fill="#000000" font-size="10" font-family="Arial">description</text>
   <text x="216" y="30" fill="#000000" font-size="10" font-family="Arial" text-decoration="underline">Serial</text>
   <text x="216" y="43" fill="#000000" font-size="10" font-family="Arial">Variable characters (128)</text>
   <text x="216" y="56" fill="#000000" font-size="10" font-family="Arial">Variable characters (128)</text>
</svg>
