<?xml version="1.0" encoding="UTF-8" standalone="no" ?>
<!DOCTYPE svg PUBLIC "-//W3C//DTD SVG 1.1//EN" "http://www.w3.org/Graphics/SVG/1.1/DTD/svg11.dtd">
<svg width="352mm" xmlns="http://www.w3.org/2000/svg" height="294mm" version="1.1" viewBox="0 0 1331 1112" xmlns:xlink="http://www.w3.org/1999/xlink">
   <polyline fill="none" points="266,595 264,685" stroke="#00aaaa" stroke-width="1"/>
   <polyline fill="none" points="260,609 271,609" stroke="#00aaaa" stroke-width="1"/>
   <polyline fill="none" points="255,696 264,670 273,697 255,696" stroke="#00aaaa" stroke-width="1"/>
   <polyline fill="none" points="270,670 259,670" stroke="#00aaaa" stroke-width="1"/>
   <text x="265" y="642" fill="#000000" font-size="10" font-family="Arial" text-anchor="middle">is composed</text>
   <text x="277" y="622" fill="#000000" font-size="10" font-family="Arial" text-anchor="middle">1,1</text>
   <text x="253" y="662" fill="#000000" font-size="10" font-family="Arial" text-anchor="middle">1,n</text>
   <polyline fill="none" points="333,712 444,712" stroke="#00aaaa" stroke-width="1"/>
   <polyline fill="none" points="347,717 347,706" stroke="#00aaaa" stroke-width="1"/>
   <polyline fill="none" points="457,721 430,712 457,702 457,721" stroke="#00aaaa" stroke-width="1"/>
   <polyline fill="none" points="430,706 430,717" stroke="#00aaaa" stroke-width="1"/>
   <text x="395" y="702" fill="#000000" font-size="10" font-family="Arial" text-anchor="middle">is formed</text>
   <text x="362" y="707" fill="#000000" font-size="10" font-family="Arial" text-anchor="middle">1,1</text>
   <text x="416" y="722" fill="#000000" font-size="10" font-family="Arial" text-anchor="middle">1,n</text>
   <polyline fill="none" points="567,708 605,708 605,652 521,652 521,682 521,684" stroke="#00aaaa" stroke-width="1"/>
   <ellipse cx="578" cy="707" rx="3" ry="3" fill="#ffffff" stroke="#00aaaa" stroke-width="1"/>
   <polyline fill="none" points="512,696 521,669 530,696 512,696" stroke="#00aaaa" stroke-width="1"/>
   <ellipse cx="521" cy="665" rx="3" ry="3" fill="#ffffff" stroke="#00aaaa" stroke-width="1"/>
   <text x="563" y="664" fill="#000000" font-size="10" font-family="Arial" text-anchor="middle">contains</text>
   <text x="619" y="698" fill="#000000" font-size="10" font-family="Arial" text-anchor="middle">container</text>
   <text x="619" y="708" fill="#000000" font-size="10" font-family="Arial" text-anchor="middle">0,1</text>
   <text x="513" y="646" fill="#000000" font-size="10" font-family="Arial" text-anchor="middle">containee</text>
   <text x="513" y="656" fill="#000000" font-size="10" font-family="Arial" text-anchor="middle">0,n</text>
   <polyline fill="none" points="499,819 502,744" stroke="#8080ff" stroke-width="1"/>
   <polygon fill="#8080ff" points="502,745 504,758 498,758" stroke="#8080ff" stroke-width="1" stroke-linejoin="miter"/>
   <text x="500" y="781" fill="#000000" font-size="10" font-family="Arial" text-anchor="middle">itemIsA</text>
   <polyline fill="none" points="437,896 499,819" stroke="#8080ff" stroke-width="1"/>
   <polyline fill="none" points="577,897 499,819" stroke="#8080ff" stroke-width="1"/>
   <polyline fill="none" points="610,922 820,912" stroke="#00aaaa" stroke-width="1"/>
   <polyline fill="none" points="649,911 676,919 650,930 649,911" stroke="#00aaaa" stroke-width="1"/>
   <polyline fill="none" points="677,924 676,914" stroke="#00aaaa" stroke-width="1"/>
   <polyline fill="none" points="833,921 806,913 832,902 833,921" stroke="#00aaaa" stroke-width="1"/>
   <polyline fill="none" points="805,907 806,918" stroke="#00aaaa" stroke-width="1"/>
   <text x="741" y="927" fill="#000000" font-size="10" font-family="Arial" text-anchor="middle">expects : 1</text>
   <text x="691" y="914" fill="#000000" font-size="10" font-family="Arial" text-anchor="middle">1,n</text>
   <text x="791" y="923" fill="#000000" font-size="10" font-family="Arial" text-anchor="middle">1,n</text>
   <polyline fill="none" points="891,996 887,961" stroke="#8080ff" stroke-width="1"/>
   <polygon fill="#8080ff" points="887,962 892,975 886,976" stroke="#8080ff" stroke-width="1" stroke-linejoin="miter"/>
   <text x="888" y="979" fill="#000000" font-size="10" font-family="Arial" text-anchor="middle">isOneOf</text>
   <polyline fill="none" points="814,1055 891,996" stroke="#8080ff" stroke-width="1"/>
   <polyline fill="none" points="966,1054 891,996" stroke="#8080ff" stroke-width="1"/>
   <polyline fill="none" points="1057,1075 1212,1075" stroke="#00aaaa" stroke-width="1"/>
   <polyline fill="none" points="1071,1080 1071,1069" stroke="#00aaaa" stroke-width="1"/>
   <polyline fill="none" points="1225,1084 1198,1075 1225,1065 1225,1084" stroke="#00aaaa" stroke-width="1"/>
   <polyline fill="none" points="1198,1069 1198,1080" stroke="#00aaaa" stroke-width="1"/>
   <text x="1134" y="1086" fill="#000000" font-size="10" font-family="Arial" text-anchor="middle">contains_enums</text>
   <text x="1086" y="1070" fill="#000000" font-size="10" font-family="Arial" text-anchor="middle">1,1</text>
   <text x="1183" y="1085" fill="#000000" font-size="10" font-family="Arial" text-anchor="middle">1,n</text>
   <polyline fill="none" points="225,167 225,282" stroke="#00aaaa" stroke-width="1"/>
   <polyline fill="none" points="234,154 225,180 215,154 234,154" stroke="#00aaaa" stroke-width="1"/>
   <polyline fill="none" points="219,180 230,180" stroke="#00aaaa" stroke-width="1"/>
   <polyline fill="none" points="215,293 225,266 234,293 215,293" stroke="#00aaaa" stroke-width="1"/>
   <ellipse cx="224" cy="262" rx="3" ry="3" fill="#ffffff" stroke="#00aaaa" stroke-width="1"/>
   <text x="225" y="226" fill="#000000" font-size="10" font-family="Arial" text-anchor="middle">belongs to</text>
   <text x="237" y="194" fill="#000000" font-size="10" font-family="Arial" text-anchor="middle">1,n</text>
   <text x="213" y="258" fill="#000000" font-size="10" font-family="Arial" text-anchor="middle">0,n</text>
   <polyline fill="none" points="290,280 290,200 408,200" stroke="#00aaaa" stroke-width="1"/>
   <polyline fill="none" points="280,293 290,266 299,293 280,293" stroke="#00aaaa" stroke-width="1"/>
   <ellipse cx="289" cy="262" rx="3" ry="3" fill="#ffffff" stroke="#00aaaa" stroke-width="1"/>
   <polyline fill="none" points="421,209 394,200 421,190 421,209" stroke="#00aaaa" stroke-width="1"/>
   <polyline fill="none" points="394,194 394,205" stroke="#00aaaa" stroke-width="1"/>
   <text x="289" y="192" fill="#000000" font-size="10" font-family="Arial" text-anchor="middle">has</text>
   <text x="278" y="258" fill="#000000" font-size="10" font-family="Arial" text-anchor="middle">0,n</text>
   <text x="380" y="210" fill="#000000" font-size="10" font-family="Arial" text-anchor="middle">1,n</text>
   <polyline fill="none" points="62,469 62,543 193,543" stroke="#00aaaa" stroke-width="1"/>
   <ellipse cx="61" cy="479" rx="3" ry="3" fill="#ffffff" stroke="#00aaaa" stroke-width="1"/>
   <polyline fill="none" points="205,552 178,543 205,533 205,552" stroke="#00aaaa" stroke-width="1"/>
   <ellipse cx="174" cy="542" rx="3" ry="3" fill="#ffffff" stroke="#00aaaa" stroke-width="1"/>
   <text x="62" y="545" fill="#000000" font-size="10" font-family="Arial" text-anchor="middle">Rel_Prj_Intrv</text>
   <text x="74" y="495" fill="#000000" font-size="10" font-family="Arial" text-anchor="middle">0,1</text>
   <text x="164" y="553" fill="#000000" font-size="10" font-family="Arial" text-anchor="middle">0,n</text>
   <polyline fill="none" points="315,320 390,320 390,399" stroke="#00aaaa" stroke-width="1"/>
   <ellipse cx="326" cy="320" rx="3" ry="3" fill="#ffffff" stroke="#00aaaa" stroke-width="1"/>
   <polyline fill="none" points="380,411 390,384 399,411 380,411" stroke="#00aaaa" stroke-width="1"/>
   <ellipse cx="389" cy="380" rx="3" ry="3" fill="#ffffff" stroke="#00aaaa" stroke-width="1"/>
   <text x="390" y="314" fill="#000000" font-size="10" font-family="Arial" text-anchor="middle">Rel_Appusr_Perf</text>
   <text x="343" y="315" fill="#000000" font-size="10" font-family="Arial" text-anchor="middle">0,1</text>
   <text x="378" y="377" fill="#000000" font-size="10" font-family="Arial" text-anchor="middle">0,n</text>
   <polyline fill="none" points="295,523 295,458 362,458" stroke="#00aaaa" stroke-width="1"/>
   <ellipse cx="294" cy="512" rx="3" ry="3" fill="#ffffff" stroke="#00aaaa" stroke-width="1"/>
   <polyline fill="none" points="374,468 348,458 374,449 374,468" stroke="#00aaaa" stroke-width="1"/>
   <ellipse cx="344" cy="458" rx="3" ry="3" fill="#ffffff" stroke="#00aaaa" stroke-width="1"/>
   <text x="292" y="451" fill="#000000" font-size="10" font-family="Arial" text-anchor="middle">Rel_Intrv_Perf</text>
   <text x="283" y="502" fill="#000000" font-size="10" font-family="Arial" text-anchor="middle">0,1</text>
   <text x="333" y="469" fill="#000000" font-size="10" font-family="Arial" text-anchor="middle">0,n</text>
   <polyline fill="none" points="533,315 470,315 470,399" stroke="#00aaaa" stroke-width="1"/>
   <ellipse cx="522" cy="315" rx="3" ry="3" fill="#ffffff" stroke="#00aaaa" stroke-width="1"/>
   <polyline fill="none" points="460,411 470,384 479,411 460,411" stroke="#00aaaa" stroke-width="1"/>
   <ellipse cx="469" cy="380" rx="3" ry="3" fill="#ffffff" stroke="#00aaaa" stroke-width="1"/>
   <text x="470" y="309" fill="#000000" font-size="10" font-family="Arial" text-anchor="middle">Rel_Pat_Perf</text>
   <text x="505" y="326" fill="#000000" font-size="10" font-family="Arial" text-anchor="middle">0,1</text>
   <text x="458" y="377" fill="#000000" font-size="10" font-family="Arial" text-anchor="middle">0,n</text>
   <polyline fill="none" points="62,407 62,336 194,336" stroke="#00aaaa" stroke-width="1"/>
   <polyline fill="none" points="53,419 62,393 71,419 53,419" stroke="#00aaaa" stroke-width="1"/>
   <ellipse cx="62" cy="389" rx="3" ry="3" fill="#ffffff" stroke="#00aaaa" stroke-width="1"/>
   <polyline fill="none" points="205,346 178,336 205,327 205,346" stroke="#00aaaa" stroke-width="1"/>
   <polyline fill="none" points="178,331 178,342" stroke="#00aaaa" stroke-width="1"/>
   <text x="62" y="339" fill="#000000" font-size="10" font-family="Arial" text-anchor="middle">Rel_Prj_Appusers</text>
   <text x="50" y="385" fill="#000000" font-size="10" font-family="Arial" text-anchor="middle">0,n</text>
   <text x="164" y="347" fill="#000000" font-size="10" font-family="Arial" text-anchor="middle">1,n</text>
   <polyline fill="none" points="753,561 931,560" stroke="#00aaaa" stroke-width="1"/>
   <polyline fill="none" points="793,551 819,560 793,570 793,551" stroke="#00aaaa" stroke-width="1"/>
   <polyline fill="none" points="819,566 819,555" stroke="#00aaaa" stroke-width="1"/>
   <polyline fill="none" points="943,570 916,560 943,551 943,570" stroke="#00aaaa" stroke-width="1"/>
   <polyline fill="none" points="916,555 917,566" stroke="#00aaaa" stroke-width="1"/>
   <text x="868" y="572" fill="#000000" font-size="10" font-family="Arial" text-anchor="middle">expects : 2</text>
   <text x="834" y="555" fill="#000000" font-size="10" font-family="Arial" text-anchor="middle">1,n</text>
   <text x="902" y="571" fill="#000000" font-size="10" font-family="Arial" text-anchor="middle">1,n</text>
   <polyline fill="none" points="731,536 731,460" stroke="#00aaaa" stroke-width="1"/>
   <ellipse cx="730" cy="523" rx="3" ry="3" fill="#ffffff" stroke="#00aaaa" stroke-width="1"/>
   <polyline fill="none" points="740,449 731,475 722,449 740,449" stroke="#00aaaa" stroke-width="1"/>
   <ellipse cx="730" cy="478" rx="3" ry="3" fill="#ffffff" stroke="#00aaaa" stroke-width="1"/>
   <text x="731" y="501" fill="#000000" font-size="10" font-family="Arial" text-anchor="middle">Rel_Ques_AnsPat</text>
   <text x="719" y="513" fill="#000000" font-size="10" font-family="Arial" text-anchor="middle">0,1</text>
   <text x="743" y="488" fill="#000000" font-size="10" font-family="Arial" text-anchor="middle">0,n</text>
   <polyline fill="none" points="659,315 697,315 697,400" stroke="#00aaaa" stroke-width="1"/>
   <ellipse cx="670" cy="315" rx="3" ry="3" fill="#ffffff" stroke="#00aaaa" stroke-width="1"/>
   <polyline fill="none" points="688,413 697,386 706,413 688,413" stroke="#00aaaa" stroke-width="1"/>
   <ellipse cx="696" cy="382" rx="3" ry="3" fill="#ffffff" stroke="#00aaaa" stroke-width="1"/>
   <text x="667" y="361" fill="#000000" font-size="10" font-family="Arial" text-anchor="middle">Rel_Pat_AnsQues</text>
   <text x="688" y="310" fill="#000000" font-size="10" font-family="Arial" text-anchor="middle">0,1</text>
   <text x="685" y="378" fill="#000000" font-size="10" font-family="Arial" text-anchor="middle">0,n</text>
   <polyline fill="none" points="874,316 763,313 763,400" stroke="#00aaaa" stroke-width="1"/>
   <ellipse cx="802" cy="314" rx="3" ry="3" fill="#ffffff" stroke="#00aaaa" stroke-width="1"/>
   <polyline fill="none" points="754,413 763,386 772,413 754,413" stroke="#00aaaa" stroke-width="1"/>
   <ellipse cx="762" cy="382" rx="3" ry="3" fill="#ffffff" stroke="#00aaaa" stroke-width="1"/>
   <text x="763" y="307" fill="#000000" font-size="10" font-family="Arial" text-anchor="middle">Rel_Ans_PatQues</text>
   <text x="785" y="325" fill="#000000" font-size="10" font-family="Arial" text-anchor="middle">0,1</text>
   <text x="751" y="378" fill="#000000" font-size="10" font-family="Arial" text-anchor="middle">0,n</text>
   <polyline fill="none" points="934,334 981,334 981,537" stroke="#00aaaa" stroke-width="1"/>
   <polyline fill="none" points="922,325 949,334 922,344 922,325" stroke="#00aaaa" stroke-width="1"/>
   <polyline fill="none" points="949,340 949,329" stroke="#00aaaa" stroke-width="1"/>
   <polyline fill="none" points="986,522 975,522" stroke="#00aaaa" stroke-width="1"/>
   <text x="980" y="328" fill="#000000" font-size="10" font-family="Arial" text-anchor="middle">Rel_Answ_AnsItem</text>
   <text x="964" y="329" fill="#000000" font-size="10" font-family="Arial" text-anchor="middle">1,n</text>
   <text x="969" y="514" fill="#000000" font-size="10" font-family="Arial" text-anchor="middle">1,1</text>
   <polyline fill="none" points="249,136 248,42 333,42" stroke="#00aaaa" stroke-width="1"/>
   <polyline fill="none" points="240,118 248,91 258,117 240,118" stroke="#00aaaa" stroke-width="1"/>
   <ellipse cx="248" cy="87" rx="3" ry="3" fill="#ffffff" stroke="#00aaaa" stroke-width="1"/>
   <polyline fill="none" points="318,36 318,47" stroke="#00aaaa" stroke-width="1"/>
   <text x="247" y="45" fill="#000000" font-size="10" font-family="Arial" text-anchor="middle">hasOne</text>
   <text x="236" y="84" fill="#000000" font-size="10" font-family="Arial" text-anchor="middle">0,n</text>
   <text x="304" y="52" fill="#000000" font-size="10" font-family="Arial" text-anchor="middle">1,1</text>
   <polyline fill="none" points="437,532 437,470" stroke="#00aaaa" stroke-width="1"/>
   <polyline fill="none" points="442,518 431,518" stroke="#00aaaa" stroke-width="1"/>
   <polyline fill="none" points="446,460 437,487 427,460 446,460" stroke="#00aaaa" stroke-width="1"/>
   <ellipse cx="436" cy="490" rx="3" ry="3" fill="#ffffff" stroke="#00aaaa" stroke-width="1"/>
   <text x="437" y="505" fill="#000000" font-size="10" font-family="Arial" text-anchor="middle">GrpPerformance</text>
   <text x="425" y="510" fill="#000000" font-size="10" font-family="Arial" text-anchor="middle">1,1</text>
   <text x="449" y="500" fill="#000000" font-size="10" font-family="Arial" text-anchor="middle">0,n</text>
   <polyline fill="none" points="217,595 217,628 164,628 164,581 193,581" stroke="#00aaaa" stroke-width="1"/>
   <polyline fill="none" points="211,609 222,609" stroke="#00aaaa" stroke-width="1"/>
   <polyline fill="none" points="205,590 178,581 205,572 205,590" stroke="#00aaaa" stroke-width="1"/>
   <ellipse cx="174" cy="581" rx="3" ry="3" fill="#ffffff" stroke="#00aaaa" stroke-width="1"/>
   <text x="153" y="642" fill="#000000" font-size="10" font-family="Arial" text-anchor="middle">src_clone_rel</text>
   <text x="236" y="609" fill="#000000" font-size="10" font-family="Arial" text-anchor="middle">source</text>
   <text x="236" y="619" fill="#000000" font-size="10" font-family="Arial" text-anchor="middle">1,1</text>
   <text x="158" y="579" fill="#000000" font-size="10" font-family="Arial" text-anchor="middle">clone</text>
   <text x="158" y="589" fill="#000000" font-size="10" font-family="Arial" text-anchor="middle">0,n</text>
   <defs>
      <linearGradient id="Gradient1" x1="0%" x2="100%" y1="0%" y2="100%" gradientUnits="objectBoundingBox">
         <stop offset="5%" stop-color="#ffffff"/>
         <stop offset="95%" stop-color="#b0ffff"/>
      </linearGradient>
   </defs>
   <rect x="192" y="523" fill="url(#Gradient1)" width="143" height="73" stroke="#00aaaa" stroke-width="1"/>
   <text x="262" y="533" fill="#000000" font-size="10" font-family="Arial" text-anchor="middle">Interview</text>
   <line x1="192" x2="335" y1="540" y2="540" stroke="#00aaaa" stroke-width="1"/>
   <text x="196" y="550" fill="#000000" font-size="10" font-family="Arial" text-decoration="underline">idInterview</text>
   <text x="196" y="563" fill="#000000" font-size="10" font-family="Arial">name</text>
   <text x="196" y="576" fill="#000000" font-size="10" font-family="Arial">description</text>
   <text x="255" y="550" fill="#000000" font-size="10" font-family="Arial" text-decoration="underline">Serial</text>
   <text x="255" y="563" fill="#000000" font-size="10" font-family="Arial">Variable characters (128)</text>
   <text x="255" y="576" fill="#000000" font-size="10" font-family="Arial">Variable characters (128)</text>
   <defs>
      <linearGradient id="Gradient2" x1="0%" x2="100%" y1="0%" y2="100%" gradientUnits="objectBoundingBox">
         <stop offset="5%" stop-color="#ffffff"/>
         <stop offset="95%" stop-color="#b0ffff"/>
      </linearGradient>
   </defs>
   <rect x="361" y="398" fill="url(#Gradient2)" width="135" height="75" stroke="#00aaaa" stroke-width="1"/>
   <text x="427" y="408" fill="#000000" font-size="10" font-family="Arial" text-anchor="middle">Performance</text>
   <line x1="361" x2="496" y1="415" y2="415" stroke="#00aaaa" stroke-width="1"/>
   <text x="365" y="425" fill="#000000" font-size="10" font-family="Arial" text-decoration="underline">idPerformance</text>
   <text x="365" y="438" fill="#000000" font-size="10" font-family="Arial">date</text>
   <text x="365" y="451" fill="#000000" font-size="10" font-family="Arial">place</text>
   <text x="365" y="464" fill="#000000" font-size="10" font-family="Arial">num_order</text>
   <text x="442" y="425" fill="#000000" font-size="10" font-family="Arial" text-decoration="underline">Serial</text>
   <text x="442" y="438" fill="#000000" font-size="10" font-family="Arial">Timestamp</text>
   <text x="442" y="451" fill="#000000" font-size="10" font-family="Arial">Variable characters (256)</text>
   <text x="442" y="464" fill="#000000" font-size="10" font-family="Arial">Integer</text>
   <defs>
      <linearGradient id="Gradient3" x1="0%" x2="100%" y1="0%" y2="100%" gradientUnits="objectBoundingBox">
         <stop offset="5%" stop-color="#ffffff"/>
         <stop offset="95%" stop-color="#b0ffff"/>
      </linearGradient>
   </defs>
   <rect x="192" y="279" fill="url(#Gradient3)" width="123" height="79" stroke="#00aaaa" stroke-width="1"/>
   <text x="253" y="290" fill="#000000" font-size="10" font-family="Arial" text-anchor="middle">AppUser</text>
   <line x1="192" x2="315" y1="297" y2="297" stroke="#00aaaa" stroke-width="1"/>
   <text x="196" y="307" fill="#000000" font-size="10" font-family="Arial" text-decoration="underline">idUser</text>
   <text x="196" y="320" fill="#000000" font-size="10" font-family="Arial">nickname</text>
   <text x="196" y="333" fill="#000000" font-size="10" font-family="Arial">passwd</text>
   <text x="196" y="346" fill="#000000" font-size="10" font-family="Arial">name</text>
   <text x="196" y="359" fill="#000000" font-size="10" font-family="Arial">midname</text>
   <text x="196" y="365" fill="#000000" font-size="10" font-family="Arial">...</text>
   <text x="249" y="307" fill="#000000" font-size="10" font-family="Arial" text-decoration="underline">Serial</text>
   <text x="249" y="320" fill="#000000" font-size="10" font-family="Arial">Variable characters (32)</text>
   <text x="249" y="333" fill="#000000" font-size="10" font-family="Arial">Variable characters (32)</text>
   <text x="249" y="346" fill="#000000" font-size="10" font-family="Arial">Variable characters (128)</text>
   <text x="249" y="359" fill="#000000" font-size="10" font-family="Arial">Variable characters (128)</text>
   <defs>
      <linearGradient id="Gradient4" x1="0%" x2="100%" y1="0%" y2="100%" gradientUnits="objectBoundingBox">
         <stop offset="5%" stop-color="#ffffff"/>
         <stop offset="95%" stop-color="#b0ffff"/>
      </linearGradient>
   </defs>
   <rect x="408" y="153" fill="url(#Gradient4)" width="120" height="62" stroke="#00aaaa" stroke-width="1"/>
   <text x="467" y="164" fill="#000000" font-size="10" font-family="Arial" text-anchor="middle">AppRole</text>
   <line x1="408" x2="528" y1="171" y2="171" stroke="#00aaaa" stroke-width="1"/>
   <text x="412" y="181" fill="#000000" font-size="10" font-family="Arial" text-decoration="underline">idrole</text>
   <text x="412" y="194" fill="#000000" font-size="10" font-family="Arial">name</text>
   <text x="412" y="207" fill="#000000" font-size="10" font-family="Arial">description</text>
   <text x="471" y="181" fill="#000000" font-size="10" font-family="Arial" text-decoration="underline">Serial</text>
   <text x="471" y="194" fill="#000000" font-size="10" font-family="Arial">Variable characters (128)</text>
   <text x="471" y="207" fill="#000000" font-size="10" font-family="Arial">Variable characters (128)</text>
   <defs>
      <linearGradient id="Gradient5" x1="0%" x2="100%" y1="0%" y2="100%" gradientUnits="objectBoundingBox">
         <stop offset="5%" stop-color="#ffffff"/>
         <stop offset="95%" stop-color="#b0ffff"/>
      </linearGradient>
   </defs>
   <rect x="213" y="683" fill="url(#Gradient5)" width="121" height="63" stroke="#00aaaa" stroke-width="1"/>
   <text x="272" y="694" fill="#000000" font-size="10" font-family="Arial" text-anchor="middle">Section</text>
   <line x1="213" x2="334" y1="701" y2="701" stroke="#00aaaa" stroke-width="1"/>
   <text x="217" y="711" fill="#000000" font-size="10" font-family="Arial" text-decoration="underline">idSection</text>
   <text x="217" y="724" fill="#000000" font-size="10" font-family="Arial">name</text>
   <text x="217" y="737" fill="#000000" font-size="10" font-family="Arial">description</text>
   <text x="217" y="750" fill="#000000" font-size="10" font-family="Arial">section_order</text>
   <text x="217" y="753" fill="#000000" font-size="10" font-family="Arial">...</text>
   <text x="288" y="711" fill="#000000" font-size="10" font-family="Arial" text-decoration="underline">Serial</text>
   <text x="288" y="724" fill="#000000" font-size="10" font-family="Arial">Variable characters (128)</text>
   <text x="288" y="737" fill="#000000" font-size="10" font-family="Arial">Variable characters (128)</text>
   <text x="288" y="750" fill="#000000" font-size="10" font-family="Arial">Integer</text>
   <defs>
      <linearGradient id="Gradient6" x1="0%" x2="100%" y1="0%" y2="100%" gradientUnits="objectBoundingBox">
         <stop offset="5%" stop-color="#ffffff"/>
         <stop offset="95%" stop-color="#b0ffff"/>
      </linearGradient>
   </defs>
   <rect x="444" y="682" fill="url(#Gradient6)" width="124" height="63" stroke="#00aaaa" stroke-width="1"/>
   <text x="505" y="693" fill="#000000" font-size="10" font-family="Arial" text-anchor="middle">Item</text>
   <line x1="444" x2="568" y1="700" y2="700" stroke="#00aaaa" stroke-width="1"/>
   <text x="448" y="710" fill="#000000" font-size="10" font-family="Arial" text-decoration="underline">idItem</text>
   <text x="448" y="723" fill="#000000" font-size="10" font-family="Arial">content</text>
   <text x="448" y="736" fill="#000000" font-size="10" font-family="Arial">item_order</text>
   <text x="448" y="749" fill="#000000" font-size="10" font-family="Arial">repeatable</text>
   <text x="448" y="752" fill="#000000" font-size="10" font-family="Arial">...</text>
   <text x="507" y="710" fill="#000000" font-size="10" font-family="Arial" text-decoration="underline">Serial</text>
   <text x="507" y="723" fill="#000000" font-size="10" font-family="Arial">Variable characters (10240)</text>
   <text x="507" y="736" fill="#000000" font-size="10" font-family="Arial">Integer</text>
   <text x="507" y="749" fill="#000000" font-size="10" font-family="Arial">Integer</text>
   <defs>
      <linearGradient id="Gradient7" x1="0%" x2="100%" y1="0%" y2="100%" gradientUnits="objectBoundingBox">
         <stop offset="5%" stop-color="#ffffff"/>
         <stop offset="95%" stop-color="#b0ffff"/>
      </linearGradient>
   </defs>
   <rect x="558" y="896" fill="url(#Gradient7)" width="105" height="53" stroke="#00aaaa" stroke-width="1"/>
   <text x="609" y="906" fill="#000000" font-size="10" font-family="Arial" text-anchor="middle">Question : 1</text>
   <line x1="558" x2="663" y1="913" y2="913" stroke="#00aaaa" stroke-width="1"/>
   <text x="562" y="923" fill="#000000" font-size="10" font-family="Arial" text-decoration="underline">idQuestion</text>
   <text x="562" y="936" fill="#000000" font-size="10" font-family="Arial">mandatory</text>
   <text x="621" y="923" fill="#000000" font-size="10" font-family="Arial" text-decoration="underline">Serial</text>
   <text x="621" y="936" fill="#000000" font-size="10" font-family="Arial">Boolean</text>
   <defs>
      <linearGradient id="Gradient8" x1="0%" x2="100%" y1="0%" y2="100%" gradientUnits="objectBoundingBox">
         <stop offset="5%" stop-color="#ffffff"/>
         <stop offset="95%" stop-color="#b0ffff"/>
      </linearGradient>
   </defs>
   <rect x="379" y="895" fill="url(#Gradient8)" width="125" height="54" stroke="#00aaaa" stroke-width="1"/>
   <text x="441" y="906" fill="#000000" font-size="10" font-family="Arial" text-anchor="middle">Text</text>
   <line x1="379" x2="504" y1="913" y2="913" stroke="#00aaaa" stroke-width="1"/>
   <text x="383" y="923" fill="#000000" font-size="10" font-family="Arial" text-decoration="underline">idText</text>
   <text x="421" y="923" fill="#000000" font-size="10" font-family="Arial" text-decoration="underline">Serial</text>
   <text x="457" y="923" fill="#000000" font-size="10" font-family="Arial" text-decoration="underline">&lt;M&gt;</text>
   <defs>
      <linearGradient id="Gradient9" x1="0%" x2="100%" y1="0%" y2="100%" gradientUnits="objectBoundingBox">
         <stop offset="5%" stop-color="#ffffff"/>
         <stop offset="95%" stop-color="#b0ffff"/>
      </linearGradient>
   </defs>
   <defs>
      <linearGradient id="Gradient10" x1="0%" x2="100%" y1="0%" y2="100%" gradientUnits="objectBoundingBox">
         <stop offset="5%" stop-color="#ffffff"/>
         <stop offset="95%" stop-color="#b0ffff"/>
      </linearGradient>
   </defs>
   <path d="M509,826 A10,13 0 0,0 488,826 L498,825 Z" fill="url(#Gradient10)" stroke="#8080ff" stroke-width="1"/>
   <line x1="502" x2="495" y1="823" y2="815" stroke="#8080ff" stroke-width="1"/>
   <line x1="495" x2="502" y1="823" y2="815" stroke="#8080ff" stroke-width="1"/>
   <line x1="509" x2="488" y1="823" y2="823" stroke="#8080ff" stroke-width="1"/>
   <defs>
      <linearGradient id="Gradient11" x1="0%" x2="100%" y1="0%" y2="100%" gradientUnits="objectBoundingBox">
         <stop offset="5%" stop-color="#ffffff"/>
         <stop offset="95%" stop-color="#b0ffff"/>
      </linearGradient>
   </defs>
   <rect x="819" y="887" fill="url(#Gradient11)" width="147" height="75" stroke="#00aaaa" stroke-width="1"/>
   <text x="891" y="897" fill="#000000" font-size="10" font-family="Arial" text-anchor="middle">Answer_Item : 1</text>
   <line x1="819" x2="966" y1="904" y2="904" stroke="#00aaaa" stroke-width="1"/>
   <text x="823" y="914" fill="#000000" font-size="10" font-family="Arial" text-decoration="underline">idAnsItem</text>
   <text x="823" y="927" fill="#000000" font-size="10" font-family="Arial">answer_order</text>
   <text x="823" y="940" fill="#000000" font-size="10" font-family="Arial">name</text>
   <text x="823" y="953" fill="#000000" font-size="10" font-family="Arial">description</text>
   <text x="893" y="914" fill="#000000" font-size="10" font-family="Arial" text-decoration="underline">Serial</text>
   <text x="893" y="927" fill="#000000" font-size="10" font-family="Arial">Integer</text>
   <text x="893" y="940" fill="#000000" font-size="10" font-family="Arial">Variable characters (128)</text>
   <text x="893" y="953" fill="#000000" font-size="10" font-family="Arial">Variable characters (128)</text>
   <defs>
      <linearGradient id="Gradient12" x1="0%" x2="100%" y1="0%" y2="100%" gradientUnits="objectBoundingBox">
         <stop offset="5%" stop-color="#ffffff"/>
         <stop offset="95%" stop-color="#b0ffff"/>
      </linearGradient>
   </defs>
   <rect x="763" y="1054" fill="url(#Gradient12)" width="106" height="44" stroke="#00aaaa" stroke-width="1"/>
   <text x="815" y="1065" fill="#000000" font-size="10" font-family="Arial" text-anchor="middle">AnswerType</text>
   <line x1="763" x2="869" y1="1072" y2="1072" stroke="#00aaaa" stroke-width="1"/>
   <text x="767" y="1082" fill="#000000" font-size="10" font-family="Arial" text-decoration="underline">idAnsType</text>
   <text x="825" y="1082" fill="#000000" font-size="10" font-family="Arial" text-decoration="underline">Serial</text>
   <text x="861" y="1082" fill="#000000" font-size="10" font-family="Arial" text-decoration="underline">&lt;M&gt;</text>
   <defs>
      <linearGradient id="Gradient13" x1="0%" x2="100%" y1="0%" y2="100%" gradientUnits="objectBoundingBox">
         <stop offset="5%" stop-color="#ffffff"/>
         <stop offset="95%" stop-color="#b0ffff"/>
      </linearGradient>
   </defs>
   <rect x="949" y="1053" fill="url(#Gradient13)" width="109" height="46" stroke="#00aaaa" stroke-width="1"/>
   <text x="1002" y="1064" fill="#000000" font-size="10" font-family="Arial" text-anchor="middle">EnumType</text>
   <line x1="949" x2="1058" y1="1071" y2="1071" stroke="#00aaaa" stroke-width="1"/>
   <text x="953" y="1081" fill="#000000" font-size="10" font-family="Arial" text-decoration="underline">idEnumType</text>
   <text x="1022" y="1081" fill="#000000" font-size="10" font-family="Arial" text-decoration="underline">Serial</text>
   <defs>
      <linearGradient id="Gradient14" x1="0%" x2="100%" y1="0%" y2="100%" gradientUnits="objectBoundingBox">
         <stop offset="5%" stop-color="#ffffff"/>
         <stop offset="95%" stop-color="#b0ffff"/>
      </linearGradient>
   </defs>
   <rect x="1211" y="1034" fill="url(#Gradient14)" width="118" height="76" stroke="#00aaaa" stroke-width="1"/>
   <text x="1270" y="1045" fill="#000000" font-size="10" font-family="Arial" text-anchor="middle">EnumItem</text>
   <line x1="1211" x2="1329" y1="1052" y2="1052" stroke="#00aaaa" stroke-width="1"/>
   <text x="1215" y="1062" fill="#000000" font-size="10" font-family="Arial" text-decoration="underline">idEnumItem</text>
   <text x="1215" y="1075" fill="#000000" font-size="10" font-family="Arial">name</text>
   <text x="1215" y="1088" fill="#000000" font-size="10" font-family="Arial">description</text>
   <text x="1215" y="1101" fill="#000000" font-size="10" font-family="Arial">value</text>
   <text x="1281" y="1062" fill="#000000" font-size="10" font-family="Arial" text-decoration="underline">Serial</text>
   <text x="1281" y="1075" fill="#000000" font-size="10" font-family="Arial">Variable characters (128)</text>
   <text x="1281" y="1088" fill="#000000" font-size="10" font-family="Arial">Variable characters (128)</text>
   <text x="1281" y="1101" fill="#000000" font-size="10" font-family="Arial">Variable characters (256)</text>
   <defs>
      <linearGradient id="Gradient15" x1="0%" x2="100%" y1="0%" y2="100%" gradientUnits="objectBoundingBox">
         <stop offset="5%" stop-color="#ffffff"/>
         <stop offset="95%" stop-color="#b0ffff"/>
      </linearGradient>
   </defs>
   <defs>
      <linearGradient id="Gradient16" x1="0%" x2="100%" y1="0%" y2="100%" gradientUnits="objectBoundingBox">
         <stop offset="5%" stop-color="#ffffff"/>
         <stop offset="95%" stop-color="#b0ffff"/>
      </linearGradient>
   </defs>
   <path d="M902,1003 A11,13 0 0,0 880,1003 L891,1002 Z" fill="url(#Gradient16)" stroke="#8080ff" stroke-width="1"/>
   <line x1="895" x2="888" y1="1000" y2="992" stroke="#8080ff" stroke-width="1"/>
   <line x1="888" x2="895" y1="1000" y2="992" stroke="#8080ff" stroke-width="1"/>
   <line x1="902" x2="881" y1="1000" y2="1000" stroke="#8080ff" stroke-width="1"/>
   <defs>
      <linearGradient id="Gradient17" x1="0%" x2="100%" y1="0%" y2="100%" gradientUnits="objectBoundingBox">
         <stop offset="5%" stop-color="#ffffff"/>
         <stop offset="95%" stop-color="#b0ffff"/>
      </linearGradient>
   </defs>
   <rect x="2" y="406" fill="url(#Gradient17)" width="125" height="63" stroke="#00aaaa" stroke-width="1"/>
   <text x="64" y="417" fill="#000000" font-size="10" font-family="Arial" text-anchor="middle">Project</text>
   <line x1="2" x2="127" y1="424" y2="424" stroke="#00aaaa" stroke-width="1"/>
   <text x="6" y="434" fill="#000000" font-size="10" font-family="Arial">idPrj</text>
   <text x="6" y="447" fill="#000000" font-size="10" font-family="Arial">name</text>
   <text x="6" y="460" fill="#000000" font-size="10" font-family="Arial">descrp</text>
   <text x="44" y="434" fill="#000000" font-size="10" font-family="Arial">Serial</text>
   <text x="44" y="447" fill="#000000" font-size="10" font-family="Arial">Variable characters (128)</text>
   <text x="44" y="460" fill="#000000" font-size="10" font-family="Arial">Variable characters (128)</text>
   <defs>
      <linearGradient id="Gradient18" x1="0%" x2="100%" y1="0%" y2="100%" gradientUnits="objectBoundingBox">
         <stop offset="5%" stop-color="#ffffff"/>
         <stop offset="95%" stop-color="#b0ffff"/>
      </linearGradient>
   </defs>
   <rect x="533" y="284" fill="url(#Gradient18)" width="127" height="63" stroke="#00aaaa" stroke-width="1"/>
   <text x="596" y="295" fill="#000000" font-size="10" font-family="Arial" text-anchor="middle">Patient</text>
   <line x1="533" x2="660" y1="302" y2="302" stroke="#00aaaa" stroke-width="1"/>
   <text x="537" y="312" fill="#000000" font-size="10" font-family="Arial">idPat</text>
   <text x="537" y="325" fill="#000000" font-size="10" font-family="Arial">numHc</text>
   <text x="537" y="338" fill="#000000" font-size="10" font-family="Arial">patientCode</text>
   <text x="603" y="312" fill="#000000" font-size="10" font-family="Arial">Serial</text>
   <text x="603" y="325" fill="#000000" font-size="10" font-family="Arial">Variable characters (15)</text>
   <text x="603" y="338" fill="#000000" font-size="10" font-family="Arial">Variable characters (18)</text>
   <defs>
      <linearGradient id="Gradient19" x1="0%" x2="100%" y1="0%" y2="100%" gradientUnits="objectBoundingBox">
         <stop offset="5%" stop-color="#ffffff"/>
         <stop offset="95%" stop-color="#b0ffff"/>
      </linearGradient>
   </defs>
   <rect x="195" y="104" fill="url(#Gradient19)" width="108" height="63" stroke="#00aaaa" stroke-width="1"/>
   <text x="248" y="115" fill="#000000" font-size="10" font-family="Arial" text-anchor="middle">AppGroup : 1</text>
   <line x1="195" x2="303" y1="122" y2="122" stroke="#00aaaa" stroke-width="1"/>
   <text x="199" y="132" fill="#000000" font-size="10" font-family="Arial">idGroup</text>
   <text x="199" y="145" fill="#000000" font-size="10" font-family="Arial">name</text>
   <text x="199" y="158" fill="#000000" font-size="10" font-family="Arial">codGroup</text>
   <text x="253" y="132" fill="#000000" font-size="10" font-family="Arial">Serial</text>
   <text x="253" y="145" fill="#000000" font-size="10" font-family="Arial">Variable characters (128)</text>
   <text x="253" y="158" fill="#000000" font-size="10" font-family="Arial">Variable characters (128)</text>
   <defs>
      <linearGradient id="Gradient20" x1="0%" x2="100%" y1="0%" y2="100%" gradientUnits="objectBoundingBox">
         <stop offset="5%" stop-color="#ffffff"/>
         <stop offset="95%" stop-color="#b0ffff"/>
      </linearGradient>
   </defs>
   <rect x="701" y="534" fill="url(#Gradient20)" width="105" height="53" stroke="#00aaaa" stroke-width="1"/>
   <text x="752" y="545" fill="#000000" font-size="10" font-family="Arial" text-anchor="middle">Question : 2</text>
   <line x1="701" x2="806" y1="552" y2="552" stroke="#00aaaa" stroke-width="1"/>
   <text x="705" y="562" fill="#000000" font-size="10" font-family="Arial" text-decoration="underline">idQuestion</text>
   <text x="705" y="575" fill="#000000" font-size="10" font-family="Arial">mandatory</text>
   <text x="764" y="562" fill="#000000" font-size="10" font-family="Arial" text-decoration="underline">Serial</text>
   <text x="764" y="575" fill="#000000" font-size="10" font-family="Arial">Boolean</text>
   <defs>
      <linearGradient id="Gradient21" x1="0%" x2="100%" y1="0%" y2="100%" gradientUnits="objectBoundingBox">
         <stop offset="5%" stop-color="#ffffff"/>
         <stop offset="95%" stop-color="#b0ffff"/>
      </linearGradient>
   </defs>
   <rect x="930" y="535" fill="url(#Gradient21)" width="147" height="76" stroke="#00aaaa" stroke-width="1"/>
   <text x="1002" y="546" fill="#000000" font-size="10" font-family="Arial" text-anchor="middle">Answer_Item : 2</text>
   <line x1="930" x2="1077" y1="553" y2="553" stroke="#00aaaa" stroke-width="1"/>
   <text x="934" y="563" fill="#000000" font-size="10" font-family="Arial" text-decoration="underline">idAnsItem</text>
   <text x="934" y="576" fill="#000000" font-size="10" font-family="Arial">answer_order</text>
   <text x="934" y="589" fill="#000000" font-size="10" font-family="Arial">name</text>
   <text x="934" y="602" fill="#000000" font-size="10" font-family="Arial">description</text>
   <text x="1004" y="563" fill="#000000" font-size="10" font-family="Arial" text-decoration="underline">Serial</text>
   <text x="1004" y="576" fill="#000000" font-size="10" font-family="Arial">Integer</text>
   <text x="1004" y="589" fill="#000000" font-size="10" font-family="Arial">Variable characters (128)</text>
   <text x="1004" y="602" fill="#000000" font-size="10" font-family="Arial">Variable characters (128)</text>
   <defs>
      <linearGradient id="Gradient22" x1="0%" x2="100%" y1="0%" y2="100%" gradientUnits="objectBoundingBox">
         <stop offset="5%" stop-color="#ffffff"/>
         <stop offset="95%" stop-color="#b0ffff"/>
      </linearGradient>
   </defs>
   <rect x="813" y="285" fill="url(#Gradient22)" width="123" height="61" stroke="#00aaaa" stroke-width="1"/>
   <text x="873" y="295" fill="#000000" font-size="10" font-family="Arial" text-anchor="middle">Answer</text>
   <line x1="813" x2="936" y1="302" y2="302" stroke="#00aaaa" stroke-width="1"/>
   <text x="817" y="312" fill="#000000" font-size="10" font-family="Arial" text-decoration="underline">idAnswer</text>
   <text x="817" y="325" fill="#000000" font-size="10" font-family="Arial">value</text>
   <text x="817" y="338" fill="#000000" font-size="10" font-family="Arial">answer_order</text>
   <text x="887" y="312" fill="#000000" font-size="10" font-family="Arial" text-decoration="underline">Serial</text>
   <text x="887" y="325" fill="#000000" font-size="10" font-family="Arial">Variable characters (256)</text>
   <text x="887" y="338" fill="#000000" font-size="10" font-family="Arial">Integer</text>
   <defs>
      <linearGradient id="Gradient23" x1="0%" x2="100%" y1="0%" y2="100%" gradientUnits="objectBoundingBox">
         <stop offset="5%" stop-color="#ffffff"/>
         <stop offset="95%" stop-color="#b0ffff"/>
      </linearGradient>
   </defs>
   <rect x="661" y="399" fill="url(#Gradient23)" width="130" height="63" stroke="#00aaaa" stroke-width="1"/>
   <text x="725" y="410" fill="#000000" font-size="10" font-family="Arial" text-anchor="middle">Pat_gives_Answer2Ques</text>
   <line x1="661" x2="791" y1="417" y2="417" stroke="#00aaaa" stroke-width="1"/>
   <text x="665" y="427" fill="#000000" font-size="10" font-family="Arial">idP_A_Q</text>
   <text x="665" y="440" fill="#000000" font-size="10" font-family="Arial">answer_number</text>
   <text x="665" y="453" fill="#000000" font-size="10" font-family="Arial">answer_order</text>
   <text x="747" y="427" fill="#000000" font-size="10" font-family="Arial">Serial</text>
   <text x="747" y="440" fill="#000000" font-size="10" font-family="Arial">Integer</text>
   <text x="747" y="453" fill="#000000" font-size="10" font-family="Arial">Integer</text>
   <defs>
      <linearGradient id="Gradient24" x1="0%" x2="100%" y1="0%" y2="100%" gradientUnits="objectBoundingBox">
         <stop offset="5%" stop-color="#ffffff"/>
         <stop offset="95%" stop-color="#b0ffff"/>
      </linearGradient>
   </defs>
   <rect x="332" y="2" fill="url(#Gradient24)" width="147" height="62" stroke="#00aaaa" stroke-width="1"/>
   <text x="404" y="12" fill="#000000" font-size="10" font-family="Arial" text-anchor="middle">GroupType</text>
   <line x1="332" x2="479" y1="19" y2="19" stroke="#00aaaa" stroke-width="1"/>
   <text x="336" y="29" fill="#000000" font-size="10" font-family="Arial" text-decoration="underline">idGroupType</text>
   <text x="336" y="42" fill="#000000" font-size="10" font-family="Arial">name</text>
   <text x="336" y="55" fill="#000000" font-size="10" font-family="Arial">description</text>
   <text x="406" y="29" fill="#000000" font-size="10" font-family="Arial" text-decoration="underline">Serial</text>
   <text x="406" y="42" fill="#000000" font-size="10" font-family="Arial">Variable characters (128)</text>
   <text x="406" y="55" fill="#000000" font-size="10" font-family="Arial">Variable characters (128)</text>
   <defs>
      <linearGradient id="Gradient25" x1="0%" x2="100%" y1="0%" y2="100%" gradientUnits="objectBoundingBox">
         <stop offset="5%" stop-color="#ffffff"/>
         <stop offset="95%" stop-color="#b0ffff"/>
      </linearGradient>
   </defs>
   <rect x="385" y="531" fill="url(#Gradient25)" width="108" height="63" stroke="#00aaaa" stroke-width="1"/>
   <text x="438" y="542" fill="#000000" font-size="10" font-family="Arial" text-anchor="middle">AppGroup : 2</text>
   <line x1="385" x2="493" y1="549" y2="549" stroke="#00aaaa" stroke-width="1"/>
   <text x="389" y="559" fill="#000000" font-size="10" font-family="Arial">idGroup</text>
   <text x="389" y="572" fill="#000000" font-size="10" font-family="Arial">name</text>
   <text x="389" y="585" fill="#000000" font-size="10" font-family="Arial">codGroup</text>
   <text x="443" y="559" fill="#000000" font-size="10" font-family="Arial">Serial</text>
   <text x="443" y="572" fill="#000000" font-size="10" font-family="Arial">Variable characters (128)</text>
   <text x="443" y="585" fill="#000000" font-size="10" font-family="Arial">Variable characters (128)</text>
</svg>
